HIERARCHY
ROOT newVegas:Hips
{
	OFFSET 0.000000 96.479958 0.000000
	CHANNELS 6 Xposition Yposition Zposition Xrotation Yrotation Zrotation
	JOINT newVegas:Pelvis
	{
		OFFSET 0.000000 0.000000 0.000000
		CHANNELS 3 Xrotation Yrotation Zrotation
		JOINT newVegas:LeftUpLeg
		{
			OFFSET 18.735201 -5.666702 -4.541200
			CHANNELS 3 Xrotation Yrotation Zrotation
			JOINT newVegas:LeftLeg
			{
				OFFSET -0.021200 -31.938179 0.493100
				CHANNELS 3 Xrotation Yrotation Zrotation
				JOINT newVegas:LeftFoot
				{
					OFFSET 0.021200 -31.938179 -4.336299
					CHANNELS 3 Xrotation Yrotation Zrotation
					JOINT newVegas:LeftToeBase
					{
						OFFSET 0.943001 -26.722000 15.023500
						CHANNELS 3 Xrotation Yrotation Zrotation
						End Site
						{
							OFFSET 0.000000 30.670183 0.000000
						}
					}
				}
				JOINT newVegas:Left_PantLeg
				{
					OFFSET 0.663870 -9.044666 -1.108900
					CHANNELS 3 Xrotation Yrotation Zrotation
					End Site
					{
						OFFSET 1.415995 20.635357 0.000000
					}
				}
			}
		}
		JOINT newVegas:RightUpLeg
		{
			OFFSET -18.735201 -5.666702 -4.541200
			CHANNELS 3 Xrotation Yrotation Zrotation
			JOINT newVegas:RightLeg
			{
				OFFSET 0.018946 -31.938133 0.493100
				CHANNELS 3 Xrotation Yrotation Zrotation
				JOINT newVegas:RightFoot
				{
					OFFSET -0.018946 -31.938126 -4.336299
					CHANNELS 3 Xrotation Yrotation Zrotation
					JOINT newVegas:RightToeBase
					{
						OFFSET -0.943001 -26.722004 15.023500
						CHANNELS 3 Xrotation Yrotation Zrotation
						End Site
						{
							OFFSET 0.000000 30.670187 0.000000
						}
					}
				}
				JOINT newVegas:Right_PantLeg
				{
					OFFSET -0.661674 -9.044716 -1.108900
					CHANNELS 3 Xrotation Yrotation Zrotation
					End Site
					{
						OFFSET -1.415958 20.635269 0.000000
					}
				}
			}
		}
	}
	JOINT newVegas:Spine
	{
		OFFSET 0.000000 10.199997 -0.299500
		CHANNELS 3 Xrotation Yrotation Zrotation
		JOINT newVegas:Spine1
		{
			OFFSET 0.000000 11.900002 -1.516600
			CHANNELS 3 Xrotation Yrotation Zrotation
			JOINT newVegas:Spine2
			{
				OFFSET 0.000000 13.600006 -2.842500
				CHANNELS 3 Xrotation Yrotation Zrotation
				JOINT newVegas:Neck
				{
					OFFSET 0.000000 9.624100 -2.890100
					CHANNELS 3 Xrotation Yrotation Zrotation
					JOINT newVegas:Head
					{
						OFFSET 0.000000 14.068802 -1.351900
						CHANNELS 3 Xrotation Yrotation Zrotation
						JOINT newVegas:Hair_Back
						{
							OFFSET 0.000000 3.231903 -17.524799
							CHANNELS 3 Xrotation Yrotation Zrotation
							End Site
							{
								OFFSET 0.000000 19.849884 0.000000
							}
						}
						JOINT newVegas:Hair_Front
						{
							OFFSET 0.000000 31.260406 4.573800
							CHANNELS 3 Xrotation Yrotation Zrotation
							JOINT newVegas:Hair_Front1
							{
								OFFSET 0.000000 2.284103 11.993300
								CHANNELS 3 Xrotation Yrotation Zrotation
								JOINT newVegas:Hair_Front2
								{
									OFFSET 0.000000 2.284103 11.993300
									CHANNELS 3 Xrotation Yrotation Zrotation
									End Site
									{
										OFFSET 0.000000 12.208862 0.000000
									}
								}
							}
						}
						JOINT newVegas:Jowel
						{
							OFFSET 0.000000 -7.458206 6.864100
							CHANNELS 3 Xrotation Yrotation Zrotation
							End Site
							{
								OFFSET 0.000000 19.849884 0.000000
							}
						}
					}
				}
				JOINT newVegas:LeftShoulder
				{
					OFFSET 15.263000 10.923401 -0.547700
					CHANNELS 3 Xrotation Yrotation Zrotation
					JOINT newVegas:LeftArm
					{
						OFFSET 25.438599 -2.830597 -13.032500
						CHANNELS 3 Xrotation Yrotation Zrotation
						JOINT newVegas:LeftForeArm
						{
							OFFSET 29.960503 0.000000 0.000000
							CHANNELS 3 Xrotation Yrotation Zrotation
							JOINT newVegas:LeftHand
							{
								OFFSET 27.849251 0.000000 0.000000
								CHANNELS 3 Xrotation Yrotation Zrotation
								JOINT newVegas:LeftHandThumb1
								{
									OFFSET 4.487587 -3.305161 6.305391
									CHANNELS 3 Xrotation Yrotation Zrotation
									JOINT newVegas:LeftHandThumb2
									{
										OFFSET 5.480453 -3.164139 3.164143
										CHANNELS 3 Xrotation Yrotation Zrotation
										JOINT newVegas:LeftHandThumb3
										{
											OFFSET 5.159721 -2.978973 2.978967
											CHANNELS 3 Xrotation Yrotation Zrotation
											End Site
											{
												OFFSET 2.494507 5.926697 1.738678
											}
										}
									}
								}
								JOINT newVegas:LeftHandIndex1
								{
									OFFSET 18.578728 -0.527832 5.208049
									CHANNELS 3 Xrotation Yrotation Zrotation
									JOINT newVegas:LeftHandIndex2
									{
										OFFSET 3.192009 0.000000 0.000000
										CHANNELS 3 Xrotation Yrotation Zrotation
										JOINT newVegas:LeftHandIndex3
										{
											OFFSET 3.835129 0.000000 0.000000
											CHANNELS 3 Xrotation Yrotation Zrotation
											End Site
											{
												OFFSET -0.034599 3.816971 0.371180
											}
										}
									}
								}
								JOINT newVegas:LeftHandMiddle1
								{
									OFFSET 18.476105 0.000000 0.000000
									CHANNELS 3 Xrotation Yrotation Zrotation
									JOINT newVegas:LeftHandMiddle2
									{
										OFFSET 3.324875 0.000000 0.000000
										CHANNELS 3 Xrotation Yrotation Zrotation
										JOINT newVegas:LeftHandMiddle3
										{
											OFFSET 4.596550 0.000000 0.000000
											CHANNELS 3 Xrotation Yrotation Zrotation
											End Site
											{
												OFFSET 0.057701 4.578827 0.399218
											}
										}
									}
								}
								JOINT newVegas:LeftHandRing1
								{
									OFFSET 17.732719 0.121887 -4.201567
									CHANNELS 3 Xrotation Yrotation Zrotation
									JOINT newVegas:LeftHandRing2
									{
										OFFSET 2.733170 0.000000 0.000000
										CHANNELS 3 Xrotation Yrotation Zrotation
										JOINT newVegas:LeftHandRing3
										{
											OFFSET 3.178268 0.000000 0.000000
											CHANNELS 3 Xrotation Yrotation Zrotation
											End Site
											{
												OFFSET 0.119102 3.170624 0.185394
											}
										}
									}
								}
								JOINT newVegas:LeftHandPinky1
								{
									OFFSET 15.989624 -0.606689 -7.535461
									CHANNELS 3 Xrotation Yrotation Zrotation
									JOINT newVegas:LeftHandPinky2
									{
										OFFSET 2.538986 0.000000 0.000000
										CHANNELS 3 Xrotation Yrotation Zrotation
										JOINT newVegas:LeftHandPinky3
										{
											OFFSET 2.593102 0.000000 0.000000
											CHANNELS 3 Xrotation Yrotation Zrotation
											End Site
											{
												OFFSET -0.150902 2.584198 0.152708
											}
										}
									}
								}
							}
							JOINT newVegas:Left_Sleeve
							{
								OFFSET 0.267448 -0.649796 0.577675
								CHANNELS 3 Xrotation Yrotation Zrotation
								End Site
								{
									OFFSET 0.000000 15.991241 0.000000
								}
							}
							JOINT newVegas:Left_CapeC
							{
								OFFSET 15.715958 -8.608795 -6.935905
								CHANNELS 3 Xrotation Yrotation Zrotation
								JOINT newVegas:Left_CapeC1
								{
									OFFSET 0.000000 -8.688499 0.000000
									CHANNELS 3 Xrotation Yrotation Zrotation
									End Site
									{
										OFFSET 0.000000 8.688499 0.000000
									}
								}
							}
						}
						JOINT newVegas:Left_CapeB
						{
							OFFSET 26.118385 -8.608795 -7.079235
							CHANNELS 3 Xrotation Yrotation Zrotation
							JOINT newVegas:Left_CapeB1
							{
								OFFSET 0.000000 -8.688499 0.000000
								CHANNELS 3 Xrotation Yrotation Zrotation
								End Site
								{
									OFFSET 0.000000 8.688499 0.000000
								}
							}
						}
						JOINT newVegas:Left_CapeA
						{
							OFFSET 5.115639 -8.608795 -10.395809
							CHANNELS 3 Xrotation Yrotation Zrotation
							JOINT newVegas:Left_CapeA1
							{
								OFFSET 0.000000 -8.688499 0.000000
								CHANNELS 3 Xrotation Yrotation Zrotation
								End Site
								{
									OFFSET 0.000000 8.688499 0.000000
								}
							}
						}
					}
				}
				JOINT newVegas:RightShoulder
				{
					OFFSET -15.263000 10.923401 -0.547700
					CHANNELS 3 Xrotation Yrotation Zrotation
					JOINT newVegas:RightArm
					{
						OFFSET -25.438599 -2.830597 -13.032500
						CHANNELS 3 Xrotation Yrotation Zrotation
						JOINT newVegas:RightForeArm
						{
							OFFSET -29.960503 0.000000 0.000000
							CHANNELS 3 Xrotation Yrotation Zrotation
							JOINT newVegas:RightHand
							{
								OFFSET -27.849251 0.000000 0.000000
								CHANNELS 3 Xrotation Yrotation Zrotation
								JOINT newVegas:RightHandThumb1
								{
									OFFSET -4.487587 -3.305161 6.305391
									CHANNELS 3 Xrotation Yrotation Zrotation
									JOINT newVegas:RightHandThumb2
									{
										OFFSET -5.480453 -3.164139 3.164143
										CHANNELS 3 Xrotation Yrotation Zrotation
										JOINT newVegas:RightHandThumb3
										{
											OFFSET -5.159721 -2.978973 2.978967
											CHANNELS 3 Xrotation Yrotation Zrotation
											End Site
											{
												OFFSET -2.494507 5.926697 1.738678
											}
										}
									}
								}
								JOINT newVegas:RightHandIndex1
								{
									OFFSET -18.578728 -0.527832 5.208049
									CHANNELS 3 Xrotation Yrotation Zrotation
									JOINT newVegas:RightHandIndex2
									{
										OFFSET -3.192009 0.000000 0.000000
										CHANNELS 3 Xrotation Yrotation Zrotation
										JOINT newVegas:RightHandIndex3
										{
											OFFSET -3.835129 0.000000 0.000000
											CHANNELS 3 Xrotation Yrotation Zrotation
											End Site
											{
												OFFSET 0.034599 3.816971 0.371180
											}
										}
									}
								}
								JOINT newVegas:RightHandMiddle1
								{
									OFFSET -18.476105 0.000000 0.000000
									CHANNELS 3 Xrotation Yrotation Zrotation
									JOINT newVegas:RightHandMiddle2
									{
										OFFSET -3.324875 0.000000 0.000000
										CHANNELS 3 Xrotation Yrotation Zrotation
										JOINT newVegas:RightHandMiddle3
										{
											OFFSET -4.596550 0.000000 0.000000
											CHANNELS 3 Xrotation Yrotation Zrotation
											End Site
											{
												OFFSET -0.057701 4.578827 0.399218
											}
										}
									}
								}
								JOINT newVegas:RightHandRing1
								{
									OFFSET -17.732719 0.121887 -4.201567
									CHANNELS 3 Xrotation Yrotation Zrotation
									JOINT newVegas:RightHandRing2
									{
										OFFSET -2.733170 0.000000 0.000000
										CHANNELS 3 Xrotation Yrotation Zrotation
										JOINT newVegas:RightHandRing3
										{
											OFFSET -3.178268 0.000000 0.000000
											CHANNELS 3 Xrotation Yrotation Zrotation
											End Site
											{
												OFFSET -0.119102 3.170624 0.185394
											}
										}
									}
								}
								JOINT newVegas:RightHandPinky1
								{
									OFFSET -15.989624 -0.606689 -7.535461
									CHANNELS 3 Xrotation Yrotation Zrotation
									JOINT newVegas:RightHandPinky2
									{
										OFFSET -2.538986 0.000000 0.000000
										CHANNELS 3 Xrotation Yrotation Zrotation
										JOINT newVegas:RightHandPinky3
										{
											OFFSET -2.593102 0.000000 0.000000
											CHANNELS 3 Xrotation Yrotation Zrotation
											End Site
											{
												OFFSET 0.150902 2.584198 0.152708
											}
										}
									}
								}
							}
							JOINT newVegas:Right_CapeC
							{
								OFFSET -15.715958 -8.608795 -6.935905
								CHANNELS 3 Xrotation Yrotation Zrotation
								JOINT newVegas:Right_CapeC1
								{
									OFFSET 0.000000 -8.688499 0.000000
									CHANNELS 3 Xrotation Yrotation Zrotation
									End Site
									{
										OFFSET 0.000000 8.688499 0.000000
									}
								}
							}
							JOINT newVegas:Right_Sleeve
							{
								OFFSET -0.267448 -0.649994 0.577675
								CHANNELS 3 Xrotation Yrotation Zrotation
								End Site
								{
									OFFSET 0.000000 15.991302 0.000000
								}
							}
						}
						JOINT newVegas:Right_CapeA
						{
							OFFSET -5.115540 -8.608795 -10.395824
							CHANNELS 3 Xrotation Yrotation Zrotation
							JOINT newVegas:Right_CapeA1
							{
								OFFSET 0.000000 -8.688499 0.000000
								CHANNELS 3 Xrotation Yrotation Zrotation
								End Site
								{
									OFFSET 0.000000 8.688499 0.000000
								}
							}
						}
						JOINT newVegas:Right_CapeB
						{
							OFFSET -26.118187 -8.608795 -7.079266
							CHANNELS 3 Xrotation Yrotation Zrotation
							JOINT newVegas:Right_CapeB1
							{
								OFFSET 0.000000 -8.688499 0.000000
								CHANNELS 3 Xrotation Yrotation Zrotation
								End Site
								{
									OFFSET 0.000000 8.688499 0.000000
								}
							}
						}
					}
				}
				JOINT newVegas:Left_Collar
				{
					OFFSET 18.625099 8.655502 8.828100
					CHANNELS 3 Xrotation Yrotation Zrotation
					JOINT newVegas:Left_Collar1
					{
						OFFSET 14.783401 10.540405 -1.259500
						CHANNELS 3 Xrotation Yrotation Zrotation
						End Site
						{
							OFFSET 0.000000 18.199875 0.000000
						}
					}
				}
				JOINT newVegas:Collar_Back
				{
					OFFSET 0.000000 15.630707 -20.132601
					CHANNELS 3 Xrotation Yrotation Zrotation
					End Site
					{
						OFFSET 0.000000 22.523010 0.000000
					}
				}
				JOINT newVegas:Left_Peck
				{
					OFFSET 17.239599 -5.132599 25.482599
					CHANNELS 3 Xrotation Yrotation Zrotation
					End Site
					{
						OFFSET 0.000000 22.523010 0.000000
					}
				}
				JOINT newVegas:Right_Peck
				{
					OFFSET -17.239599 -5.132202 25.482599
					CHANNELS 3 Xrotation Yrotation Zrotation
					End Site
					{
						OFFSET 0.000000 22.523010 0.000000
					}
				}
				JOINT newVegas:Right_Collar
				{
					OFFSET -18.625099 8.655792 8.828100
					CHANNELS 3 Xrotation Yrotation Zrotation
					JOINT newVegas:Right_Collar1
					{
						OFFSET -14.783401 10.539993 -1.259500
						CHANNELS 3 Xrotation Yrotation Zrotation
						End Site
						{
							OFFSET 0.000000 18.199631 0.000000
						}
					}
				}
			}
		}
		JOINT newVegas:Belly
		{
			OFFSET 0.000000 -6.540398 9.014299
			CHANNELS 3 Xrotation Yrotation Zrotation
			End Site
			{
				OFFSET 0.000000 11.566666 0.000000
			}
		}
	}
	JOINT newVegas:ElvisFacialAnim_Joint
	{
		OFFSET 1.000000 -95.330101 -8.825800
		CHANNELS 3 Xrotation Yrotation Zrotation
		End Site
		{
			OFFSET 0.000000 35.315800 0.000000
		}
	}
}
MOTION
Frames: 4
Frame Time: 0.033333
-118.066795 84.731430 6.995195 13.760425 -38.334314 7.226098 -0.000000 0.000001 -0.000000 -52.095543 2.476326 11.756241 58.372695 -5.882598 1.022488 -17.777946 2.622712 -5.033989 0.000000 -0.000002 -0.000000 0.000001 0.000001 -0.000000 -51.863266 -2.345214 -19.412297 47.942638 -9.308842 -4.893143 -18.333981 3.686092 -6.861214 -0.000001 0.000001 -0.000001 0.000001 0.000000 0.000000 17.757814 8.372542 12.261087 6.080816 6.315330 1.884603 1.299217 1.682106 -5.064633 -2.162004 1.174722 -0.951304 -2.161982 1.174726 -0.951303 -0.000000 -0.000000 0.000001 -2.162036 1.174795 -0.951307 -2.161916 1.174651 -0.951302 -0.000001 0.000000 0.000000 -0.000000 -0.000000 0.000001 2.873362 -18.181004 -3.319147 -34.626761 -14.483239 -82.748377 -1.304396 -48.826847 -7.417146 -38.200258 -13.689142 8.026680 -7.471932 1.860677 -7.166926 30.987004 27.310534 -4.510881 0.000003 0.000003 -0.000002 -4.707159 11.366745 -75.716540 -0.816414 3.073993 -46.874622 0.000001 -0.000002 -0.000000 1.623342 16.580938 -84.691299 0.018020 0.022030 -72.884874 0.000001 0.000001 -0.000000 -6.436860 23.133424 -89.739841 0.012876 0.975916 -51.002986 0.000000 -0.000001 -0.000000 -17.080754 22.136882 -87.150120 0.011707 0.023150 -58.127266 0.000000 -0.000002 -0.000001 0.000001 -0.000001 -0.000001 0.000001 -0.000001 -0.000001 0.000000 -0.000001 -0.000001 -0.000001 0.000000 -0.000000 -0.000001 0.000000 -0.000000 -0.000001 0.000000 -0.000000 -0.000002 0.000000 -0.000000 14.421977 36.025413 -34.919687 -36.277716 14.829430 77.972155 -4.151780 62.885477 -11.290043 -19.703952 -2.293946 5.282365 9.347184 2.810538 -11.364522 16.169015 -43.265994 15.843544 -0.000000 -0.000000 -0.000000 17.076788 -0.396561 31.924352 -0.204394 -0.284199 112.811557 0.000000 0.000001 -0.000000 9.205463 -5.035882 102.738094 0.014964 -0.019198 61.018513 0.000000 -0.000001 -0.000000 5.569132 -8.935191 107.329094 0.547970 -0.005786 41.263714 0.000001 0.000001 -0.000001 6.511259 -17.148261 98.228031 0.007411 -0.015740 43.845737 0.000002 0.000005 -0.000002 0.000000 -0.000000 -0.000001 0.000000 -0.000000 -0.000001 -0.000000 -0.000000 -0.000003 0.000000 0.000000 -0.000001 0.000000 0.000001 -0.000000 0.000000 0.000000 -0.000001 0.000000 0.000001 -0.000000 -0.000002 -0.000002 -0.000000 -0.000002 -0.000002 -0.000000 -0.000002 -0.000002 -0.000000 -0.000002 -0.000002 -0.000000 -0.000002 -0.000002 -0.000000 -0.000002 -0.000002 -0.000000 -0.000002 -0.000002 -0.000000 -0.000002 -0.000001 -0.000000 -0.000000 0.000001 -0.000000 
-122.065750 84.364319 6.717600 13.382069 -36.680756 7.316568 -0.000000 -0.000001 0.000000 -50.211593 1.139973 14.181810 57.695052 -8.701738 0.724740 -18.916907 3.332731 -7.382482 -0.000000 -0.000001 -0.000000 -0.000000 0.000002 -0.000003 -52.422627 -0.609202 -20.377417 45.433489 -9.635696 -7.536501 -20.441991 3.536246 -4.504800 -0.000000 -0.000001 -0.000001 -0.000001 0.000001 -0.000003 18.604071 7.526557 12.929598 5.632565 6.219142 1.486567 0.844092 1.603935 -5.470394 -2.102158 1.132209 -0.879831 -2.102155 1.132204 -0.879831 0.000002 0.000000 -0.000000 -2.102150 1.132206 -0.879825 -2.102084 1.132178 -0.879828 0.000002 -0.000001 0.000000 0.000002 0.000000 -0.000000 2.799533 -18.678827 -3.278407 -34.942756 -14.665355 -82.624969 -1.241525 -48.232822 -7.389196 -38.469599 -13.818205 8.177167 -7.471932 1.860678 -7.166925 30.987001 27.310539 -4.510885 -0.000003 -0.000005 -0.000007 -4.707158 11.366743 -75.716540 -0.816410 3.073993 -46.874622 0.000002 -0.000001 -0.000002 1.623346 16.580936 -84.691299 0.018015 0.022029 -72.884880 0.000000 0.000003 0.000001 -6.436859 23.133419 -89.739841 0.012878 0.975915 -51.002983 0.000000 -0.000001 -0.000001 -17.080758 22.136884 -87.150113 0.011707 0.023147 -58.127266 -0.000000 -0.000002 -0.000001 -0.000000 0.000001 0.000003 -0.000000 0.000001 0.000003 -0.000001 0.000001 0.000003 0.000002 0.000002 -0.000000 0.000002 0.000002 -0.000000 0.000002 0.000002 -0.000000 0.000001 0.000002 -0.000000 14.058100 36.138818 -34.157455 -35.824827 14.588147 77.407408 -4.106787 62.833314 -11.240320 -19.791674 -2.377327 5.608422 9.347182 2.810539 -11.364519 16.169008 -43.265997 15.843554 0.000002 0.000000 -0.000002 17.076788 -0.396561 31.924352 -0.204393 -0.284199 112.811557 0.000002 0.000000 -0.000001 9.205463 -5.035881 102.738094 0.014963 -0.019199 61.018513 0.000000 -0.000002 -0.000001 5.569132 -8.935191 107.329101 0.547967 -0.005782 41.263724 -0.000000 -0.000003 0.000001 6.511264 -17.148259 98.228031 0.007411 -0.015739 43.845740 0.000002 -0.000002 -0.000002 -0.000000 0.000001 0.000000 0.000000 0.000000 -0.000001 -0.000001 0.000001 -0.000001 0.000003 0.000000 0.000001 0.000003 0.000001 0.000000 0.000003 0.000000 0.000001 0.000003 0.000001 0.000000 -0.000001 -0.000003 -0.000000 -0.000001 -0.000003 -0.000000 -0.000001 -0.000003 -0.000000 -0.000001 -0.000003 -0.000000 -0.000001 -0.000003 -0.000000 -0.000001 -0.000003 -0.000000 -0.000001 -0.000003 -0.000000 0.000002 0.000000 0.000001 -0.000000 -0.000001 0.000000 
-126.620735 83.987091 6.253039 12.575061 -34.987675 6.786785 0.000000 0.000002 0.000000 -47.624744 -0.429522 17.627567 56.113788 -12.044794 0.365834 -19.709341 4.185686 -10.161283 -0.000000 -0.000000 -0.000000 0.000001 -0.000001 0.000002 -52.386557 0.196181 -22.245571 46.251483 -12.643853 -6.361371 -20.242490 3.298048 -3.211584 0.000000 0.000001 -0.000002 -0.000000 -0.000001 -0.000002 19.364671 6.544915 12.321977 5.265208 6.164177 1.782063 0.477871 1.532182 -5.159443 -2.007514 1.095218 -0.790342 -2.007521 1.095230 -0.790360 0.000000 -0.000002 0.000001 -2.007507 1.095209 -0.790349 -2.007492 1.095279 -0.790367 -0.000003 0.000000 -0.000001 0.000000 -0.000002 -0.000001 2.649442 -19.219724 -3.541073 -35.099393 -14.778272 -82.159813 -1.130193 -47.380274 -7.499984 -38.403220 -14.140263 8.471019 -7.471934 1.860684 -7.166925 30.987008 27.310535 -4.510887 0.000003 -0.000000 -0.000003 -4.707159 11.366744 -75.716540 -0.816413 3.073991 -46.874622 -0.000000 0.000003 0.000000 1.623344 16.580940 -84.691299 0.018018 0.022029 -72.884874 -0.000002 0.000000 -0.000000 -6.436862 23.133420 -89.739834 0.012872 0.975914 -51.002986 -0.000000 -0.000001 0.000000 -17.080758 22.136879 -87.150113 0.011703 0.023147 -58.127266 -0.000000 -0.000005 -0.000000 0.000000 0.000002 0.000003 0.000000 0.000002 0.000003 -0.000001 0.000002 0.000003 -0.000002 -0.000001 0.000000 -0.000002 -0.000001 0.000000 -0.000002 -0.000001 0.000000 -0.000003 -0.000001 0.000000 13.468422 36.320989 -32.975033 -35.322726 14.316378 76.897418 -4.039756 62.403600 -11.117081 -19.902444 -1.922651 6.209980 9.347184 2.810538 -11.364522 16.169008 -43.265994 15.843546 -0.000001 -0.000003 0.000001 17.076788 -0.396560 31.924355 -0.204394 -0.284204 112.811557 0.000000 0.000000 -0.000001 9.205463 -5.035881 102.738100 0.014966 -0.019199 61.018513 0.000000 0.000001 0.000000 5.569133 -8.935192 107.329101 0.547966 -0.005785 41.263714 -0.000000 0.000001 -0.000000 6.511262 -17.148259 98.228031 0.007409 -0.015737 43.845740 0.000001 0.000002 0.000000 -0.000000 0.000000 -0.000001 -0.000000 0.000000 0.000000 -0.000000 0.000000 -0.000002 0.000002 0.000001 0.000000 0.000002 0.000002 -0.000000 0.000002 0.000001 0.000000 0.000002 0.000002 -0.000000 -0.000000 -0.000001 -0.000001 -0.000000 -0.000001 -0.000001 -0.000000 -0.000001 -0.000001 -0.000000 -0.000001 -0.000001 -0.000000 -0.000001 -0.000001 -0.000000 -0.000001 -0.000001 -0.000000 -0.000001 -0.000001 0.000001 0.000000 -0.000000 0.000000 0.000002 0.000000 
-131.848358 83.561371 5.559232 11.648281 -33.618253 5.855045 0.000001 -0.000000 -0.000000 -44.156056 -1.824670 22.344125 53.092751 -15.644939 0.084292 -20.016378 5.262152 -13.712593 -0.000000 0.000000 -0.000000 0.000000 0.000003 -0.000001 -51.911873 0.647291 -27.155526 48.611040 -11.238538 -1.415826 -12.307280 1.021468 3.650503 -0.000002 0.000001 -0.000002 -0.000000 -0.000004 -0.000001 19.807306 5.604507 10.262408 5.036753 6.209758 2.850504 0.290542 1.504448 -4.047743 -1.893505 1.076499 -0.738284 -1.893505 1.076507 -0.738295 0.000000 0.000002 -0.000001 -1.893509 1.076493 -0.738288 -1.893499 1.076478 -0.738281 -0.000001 -0.000001 -0.000002 0.000000 0.000002 -0.000001 2.311191 -19.689328 -4.318314 -34.967283 -14.753188 -81.322759 -0.959862 -46.447086 -7.846202 -37.934625 -14.591760 8.948526 -7.471932 1.860684 -7.166926 30.987008 27.310535 -4.510893 0.000002 0.000003 -0.000002 -4.707160 11.366747 -75.716540 -0.816414 3.073992 -46.874622 0.000000 -0.000003 -0.000000 1.623342 16.580935 -84.691299 0.018021 0.022032 -72.884874 -0.000001 0.000001 0.000000 -6.436862 23.133420 -89.739834 0.012875 0.975914 -51.002986 -0.000000 -0.000001 -0.000000 -17.080753 22.136879 -87.150113 0.011703 0.023146 -58.127266 -0.000000 -0.000002 -0.000000 -0.000001 0.000001 0.000001 -0.000001 0.000001 0.000001 -0.000002 0.000001 0.000001 0.000000 0.000000 -0.000000 0.000000 -0.000001 0.000000 0.000000 0.000000 -0.000000 -0.000001 -0.000001 -0.000000 12.856550 36.462586 -31.765495 -34.924485 14.095105 76.597143 -3.985003 61.639684 -11.002925 -20.046791 -0.990675 7.061895 9.347186 2.810539 -11.364522 16.169006 -43.265987 15.843556 0.000001 -0.000000 -0.000002 17.076788 -0.396559 31.924355 -0.204395 -0.284201 112.811564 0.000000 0.000000 -0.000000 9.205465 -5.035881 102.738094 0.014966 -0.019201 61.018519 0.000001 -0.000002 -0.000000 5.569133 -8.935192 107.329101 0.547966 -0.005782 41.263720 -0.000000 -0.000001 0.000000 6.511265 -17.148259 98.228031 0.007412 -0.015733 43.845733 0.000001 -0.000002 0.000000 -0.000000 0.000001 0.000001 0.000000 -0.000001 0.000002 -0.000000 0.000000 0.000001 0.000002 -0.000001 0.000000 0.000002 0.000000 -0.000000 0.000002 -0.000001 0.000000 0.000002 -0.000000 -0.000000 -0.000000 0.000000 0.000001 -0.000000 0.000000 0.000001 -0.000000 0.000000 0.000001 -0.000000 0.000000 0.000001 -0.000000 0.000000 0.000001 -0.000000 0.000000 0.000001 -0.000000 0.000000 0.000001 0.000002 -0.000002 -0.000000 0.000001 -0.000000 -0.000000 
